<mxfile host="app.diagrams.net" modified="2021-06-21T06:59:24.575Z" agent="5.0 (Windows NT 10.0; Win64; x64) AppleWebKit/537.36 (KHTML, like Gecko) Chrome/91.0.4472.114 Safari/537.36" etag="RfzdIiGDmHBwK33DWVyk" version="14.8.0" type="github">
  <diagram id="EMt0QNAx2J99hczBukC7" name="Page-1">
    <mxGraphModel dx="1470" dy="699" grid="1" gridSize="10" guides="1" tooltips="1" connect="1" arrows="1" fold="1" page="1" pageScale="1" pageWidth="827" pageHeight="1169" math="0" shadow="0">
      <root>
        <mxCell id="0" />
        <mxCell id="1" parent="0" />
        <mxCell id="C3T1x8RPN89TvurakHbP-7" value="订单&lt;br&gt;t_sale_orders(订单主表)&lt;br&gt;t_sale_orders_goods(订单明细表)" style="whiteSpace=wrap;html=1;rounded=0;fillColor=#d5e8d4;strokeColor=#82b366;" parent="1" vertex="1">
          <mxGeometry x="490" y="40" width="240" height="60" as="geometry" />
        </mxCell>
        <mxCell id="C3T1x8RPN89TvurakHbP-11" value="&lt;div&gt;发货&lt;/div&gt;&lt;div&gt;t_wms_sendout(发货单主表)&lt;/div&gt;&lt;div&gt;t_wms_sendout_detail(发货单明细表)&lt;/div&gt;&lt;div&gt;t_wms_barcode(条码表)&lt;/div&gt;&lt;div&gt;t_wms_presendout（发货申请单主表）&lt;/div&gt;&lt;div&gt;t_wms_presendout_detail(发货申请明细表)&lt;/div&gt;" style="whiteSpace=wrap;html=1;rounded=0;fillColor=#d5e8d4;strokeColor=#82b366;" parent="1" vertex="1">
          <mxGeometry x="490" y="140" width="240" height="100" as="geometry" />
        </mxCell>
        <mxCell id="C3T1x8RPN89TvurakHbP-13" value="售后&lt;br&gt;t_sale_as_orders(售后主表)&lt;br&gt;t_sale_as_orders_goods（售后明细表）" style="whiteSpace=wrap;html=1;rounded=0;fillColor=#d5e8d4;strokeColor=#82b366;" parent="1" vertex="1">
          <mxGeometry x="490" y="270" width="240" height="60" as="geometry" />
        </mxCell>
        <mxCell id="C3T1x8RPN89TvurakHbP-21" value="用户&lt;br&gt;t_user(用户表)-邮箱" style="whiteSpace=wrap;html=1;rounded=0;fillColor=#d5e8d4;strokeColor=#82b366;" parent="1" vertex="1">
          <mxGeometry x="1180" y="140" width="240" height="60" as="geometry" />
        </mxCell>
        <mxCell id="C3T1x8RPN89TvurakHbP-23" value="销售代表（维度表）&lt;br&gt;t_staff&lt;br&gt;t_access_group&lt;br&gt;t_access_department&lt;br&gt;t_user_staff_link(会员客户代表关系表)" style="whiteSpace=wrap;html=1;rounded=0;fillColor=#d5e8d4;strokeColor=#82b366;" parent="1" vertex="1">
          <mxGeometry x="1180" y="240" width="247" height="115" as="geometry" />
        </mxCell>
        <mxCell id="C3T1x8RPN89TvurakHbP-24" value="汇率&lt;br&gt;t_fms_exchangerate（取财务核算汇率）" style="whiteSpace=wrap;html=1;rounded=0;fillColor=#d5e8d4;strokeColor=#82b366;" parent="1" vertex="1">
          <mxGeometry x="1180" y="40" width="240" height="60" as="geometry" />
        </mxCell>
        <mxCell id="C3T1x8RPN89TvurakHbP-39" value="ODS层原始表数据" style="rounded=0;whiteSpace=wrap;html=1;" parent="1" vertex="1">
          <mxGeometry x="20" y="40" width="190" height="70" as="geometry" />
        </mxCell>
        <mxCell id="C3T1x8RPN89TvurakHbP-43" value="法务催款函收件地址&lt;br&gt;待沟通" style="whiteSpace=wrap;html=1;rounded=0;fillColor=#e51400;strokeColor=#B20000;fontColor=#ffffff;" parent="1" vertex="1">
          <mxGeometry x="490" y="460" width="240" height="60" as="geometry" />
        </mxCell>
        <mxCell id="C3T1x8RPN89TvurakHbP-44" value="PCBA订单（db_pcba）&lt;br&gt;t_pcba_sale_orders(订单主表)&lt;br&gt;t_pcba_sale_orders_items(订单明细表)" style="whiteSpace=wrap;html=1;rounded=0;fillColor=#d5e8d4;strokeColor=#82b366;" parent="1" vertex="1">
          <mxGeometry x="860" y="40" width="240" height="60" as="geometry" />
        </mxCell>
        <mxCell id="C3T1x8RPN89TvurakHbP-45" value="整单折扣费&lt;br&gt;t_pcba_as_discount_orders(折让单-求和)" style="whiteSpace=wrap;html=1;rounded=0;fillColor=#d5e8d4;strokeColor=#82b366;" parent="1" vertex="1">
          <mxGeometry x="860" y="240" width="240" height="60" as="geometry" />
        </mxCell>
        <mxCell id="C3T1x8RPN89TvurakHbP-46" value="PCBA发货（db_srm）&lt;br&gt;t_pcba_wms_sendout（发货单）" style="whiteSpace=wrap;html=1;rounded=0;fillColor=#d5e8d4;strokeColor=#82b366;" parent="1" vertex="1">
          <mxGeometry x="860" y="140" width="240" height="60" as="geometry" />
        </mxCell>
        <mxCell id="C3T1x8RPN89TvurakHbP-50" value="&lt;span style=&quot;color: rgb(0 , 0 , 0) ; text-align: left&quot;&gt;授信额度&lt;br&gt;&lt;/span&gt;&lt;span style=&quot;color: rgb(0 , 0 , 0) ; text-align: left&quot;&gt;t_fms_credit_application(授信额度申请表)&lt;/span&gt;" style="whiteSpace=wrap;html=1;rounded=0;fillColor=#d5e8d4;strokeColor=#82b366;" parent="1" vertex="1">
          <mxGeometry x="1180" y="390" width="240" height="60" as="geometry" />
        </mxCell>
        <mxCell id="C3T1x8RPN89TvurakHbP-52" value="DWD层数据" style="rounded=0;whiteSpace=wrap;html=1;" parent="1" vertex="1">
          <mxGeometry x="30" y="1010" width="190" height="80" as="geometry" />
        </mxCell>
        <mxCell id="C3T1x8RPN89TvurakHbP-56" value="&lt;span style=&quot;color: rgb(0 , 0 , 0) ; text-align: left&quot;&gt;整单附加折扣费&lt;br&gt;&lt;/span&gt;&lt;span style=&quot;text-align: left&quot;&gt;&lt;font color=&quot;#000000&quot;&gt;t_sale_orders_amounts(&lt;/font&gt;&lt;/span&gt;&lt;span style=&quot;color: rgb(0 , 0 , 0) ; text-align: left&quot;&gt;SALE销售单整体费用折扣明细表&lt;/span&gt;&lt;span style=&quot;text-align: left&quot;&gt;&lt;font color=&quot;#000000&quot;&gt;)&lt;/font&gt;&lt;/span&gt;" style="whiteSpace=wrap;html=1;rounded=0;fillColor=#d5e8d4;strokeColor=#82b366;" parent="1" vertex="1">
          <mxGeometry x="490" y="370" width="240" height="60" as="geometry" />
        </mxCell>
        <mxCell id="C3T1x8RPN89TvurakHbP-57" value="整单附加费&lt;br&gt;t_pcba_orders_amounts(smt订单型号费用表)" style="whiteSpace=wrap;html=1;rounded=0;fillColor=#d5e8d4;strokeColor=#82b366;" parent="1" vertex="1">
          <mxGeometry x="860" y="360" width="240" height="60" as="geometry" />
        </mxCell>
        <mxCell id="C3T1x8RPN89TvurakHbP-62" style="edgeStyle=orthogonalEdgeStyle;rounded=0;orthogonalLoop=1;jettySize=auto;html=1;exitX=1;exitY=0.5;exitDx=0;exitDy=0;" parent="1" source="C3T1x8RPN89TvurakHbP-60" target="C3T1x8RPN89TvurakHbP-61" edge="1">
          <mxGeometry relative="1" as="geometry" />
        </mxCell>
        <mxCell id="C3T1x8RPN89TvurakHbP-60" value="&lt;div&gt;t_ods_oerp_sale_orders_1d_ql&lt;/div&gt;&lt;div&gt;t_ods_oerp_sale_orders_goods_1d_ql&lt;/div&gt;" style="whiteSpace=wrap;html=1;rounded=0;" parent="1" vertex="1">
          <mxGeometry x="290" y="1010" width="270" height="60" as="geometry" />
        </mxCell>
        <mxCell id="C3T1x8RPN89TvurakHbP-64" value="" style="edgeStyle=orthogonalEdgeStyle;rounded=0;orthogonalLoop=1;jettySize=auto;html=1;" parent="1" source="C3T1x8RPN89TvurakHbP-61" target="C3T1x8RPN89TvurakHbP-63" edge="1">
          <mxGeometry relative="1" as="geometry" />
        </mxCell>
        <mxCell id="C3T1x8RPN89TvurakHbP-61" value="t_dwd_csale_orders_goods_detail_1d_ql" style="whiteSpace=wrap;html=1;rounded=0;" parent="1" vertex="1">
          <mxGeometry x="630" y="1010" width="290" height="60" as="geometry" />
        </mxCell>
        <mxCell id="C3T1x8RPN89TvurakHbP-63" value="IC销售订单明细" style="whiteSpace=wrap;html=1;rounded=0;fillColor=#dae8fc;strokeColor=#6c8ebf;" parent="1" vertex="1">
          <mxGeometry x="1010" y="1010" width="120" height="60" as="geometry" />
        </mxCell>
        <mxCell id="C3T1x8RPN89TvurakHbP-72" value="" style="edgeStyle=orthogonalEdgeStyle;rounded=0;orthogonalLoop=1;jettySize=auto;html=1;" parent="1" source="C3T1x8RPN89TvurakHbP-70" target="C3T1x8RPN89TvurakHbP-71" edge="1">
          <mxGeometry relative="1" as="geometry" />
        </mxCell>
        <mxCell id="C3T1x8RPN89TvurakHbP-70" value="&lt;div&gt;t_ods_oerp_sale_as_orders_1d_ql&lt;/div&gt;&lt;div&gt;t_ods_oerp_sale_as_orders_goods_1d_ql&lt;/div&gt;" style="whiteSpace=wrap;html=1;rounded=0;" parent="1" vertex="1">
          <mxGeometry x="290" y="1110" width="270" height="60" as="geometry" />
        </mxCell>
        <mxCell id="C3T1x8RPN89TvurakHbP-74" value="" style="edgeStyle=orthogonalEdgeStyle;rounded=0;orthogonalLoop=1;jettySize=auto;html=1;" parent="1" source="C3T1x8RPN89TvurakHbP-71" target="C3T1x8RPN89TvurakHbP-73" edge="1">
          <mxGeometry relative="1" as="geometry" />
        </mxCell>
        <mxCell id="C3T1x8RPN89TvurakHbP-71" value="t_dwd_csale_as_orders_goods_detail_1d_ql" style="whiteSpace=wrap;html=1;rounded=0;" parent="1" vertex="1">
          <mxGeometry x="630" y="1110" width="290" height="60" as="geometry" />
        </mxCell>
        <mxCell id="C3T1x8RPN89TvurakHbP-73" value="IC销售售后明细" style="whiteSpace=wrap;html=1;rounded=0;fillColor=#dae8fc;strokeColor=#6c8ebf;" parent="1" vertex="1">
          <mxGeometry x="1010" y="1109" width="120" height="60" as="geometry" />
        </mxCell>
        <mxCell id="C3T1x8RPN89TvurakHbP-77" value="" style="edgeStyle=orthogonalEdgeStyle;rounded=0;orthogonalLoop=1;jettySize=auto;html=1;" parent="1" source="C3T1x8RPN89TvurakHbP-75" target="C3T1x8RPN89TvurakHbP-76" edge="1">
          <mxGeometry relative="1" as="geometry" />
        </mxCell>
        <mxCell id="C3T1x8RPN89TvurakHbP-75" value="&lt;div&gt;t_ods_oerp_wms_sendout_1d_ql&lt;/div&gt;&lt;div&gt;t_ods_oerp_wms_sendout_detail_1d_ql&lt;/div&gt;&lt;div&gt;t_ods_oerp_wms_barcode_1d_ql&lt;/div&gt;&lt;div&gt;t_ods_oerp_wms_presendout_1d_ql&lt;/div&gt;&lt;div&gt;t_ods_oerp_wms_presendout_detail_1d_ql&lt;/div&gt;" style="whiteSpace=wrap;html=1;rounded=0;" parent="1" vertex="1">
          <mxGeometry x="290" y="1200" width="270" height="80" as="geometry" />
        </mxCell>
        <mxCell id="C3T1x8RPN89TvurakHbP-79" value="" style="edgeStyle=orthogonalEdgeStyle;rounded=0;orthogonalLoop=1;jettySize=auto;html=1;" parent="1" source="C3T1x8RPN89TvurakHbP-76" target="C3T1x8RPN89TvurakHbP-78" edge="1">
          <mxGeometry relative="1" as="geometry" />
        </mxCell>
        <mxCell id="C3T1x8RPN89TvurakHbP-76" value="t_dwd_cwms_sendout_detail_1d_ql" style="whiteSpace=wrap;html=1;rounded=0;" parent="1" vertex="1">
          <mxGeometry x="640" y="1200" width="270" height="80" as="geometry" />
        </mxCell>
        <mxCell id="C3T1x8RPN89TvurakHbP-78" value="IC物流发货明细" style="whiteSpace=wrap;html=1;rounded=0;fillColor=#dae8fc;strokeColor=#6c8ebf;" parent="1" vertex="1">
          <mxGeometry x="1010" y="1210" width="120" height="60" as="geometry" />
        </mxCell>
        <mxCell id="C3T1x8RPN89TvurakHbP-82" value="" style="edgeStyle=orthogonalEdgeStyle;rounded=0;orthogonalLoop=1;jettySize=auto;html=1;" parent="1" source="C3T1x8RPN89TvurakHbP-80" target="C3T1x8RPN89TvurakHbP-81" edge="1">
          <mxGeometry relative="1" as="geometry" />
        </mxCell>
        <mxCell id="C3T1x8RPN89TvurakHbP-80" value="t_ods_opcba_pcba_wms_sendout_1d_ql" style="whiteSpace=wrap;html=1;rounded=0;" parent="1" vertex="1">
          <mxGeometry x="1241" y="1010" width="270" height="90" as="geometry" />
        </mxCell>
        <mxCell id="C3T1x8RPN89TvurakHbP-85" value="" style="edgeStyle=orthogonalEdgeStyle;rounded=0;orthogonalLoop=1;jettySize=auto;html=1;" parent="1" source="C3T1x8RPN89TvurakHbP-81" target="C3T1x8RPN89TvurakHbP-84" edge="1">
          <mxGeometry relative="1" as="geometry" />
        </mxCell>
        <mxCell id="C3T1x8RPN89TvurakHbP-81" value="t_dwd_cpcba_wms_sendout_detail_1d_ql" style="whiteSpace=wrap;html=1;rounded=0;" parent="1" vertex="1">
          <mxGeometry x="1591" y="1015" width="270" height="80" as="geometry" />
        </mxCell>
        <mxCell id="C3T1x8RPN89TvurakHbP-84" value="PCBA物流发货明细" style="whiteSpace=wrap;html=1;rounded=0;fillColor=#e1d5e7;strokeColor=#9673a6;" parent="1" vertex="1">
          <mxGeometry x="1961" y="1025" width="120" height="60" as="geometry" />
        </mxCell>
        <mxCell id="C3T1x8RPN89TvurakHbP-88" value="" style="edgeStyle=orthogonalEdgeStyle;rounded=0;orthogonalLoop=1;jettySize=auto;html=1;" parent="1" source="C3T1x8RPN89TvurakHbP-86" target="C3T1x8RPN89TvurakHbP-87" edge="1">
          <mxGeometry relative="1" as="geometry" />
        </mxCell>
        <mxCell id="C3T1x8RPN89TvurakHbP-86" value="&lt;div&gt;t_ods_opcba_pcba_sale_orders_1d_ql&lt;/div&gt;&lt;div&gt;t_ods_opcba_pcba_sale_orders_items_1d_ql&lt;/div&gt;" style="whiteSpace=wrap;html=1;rounded=0;" parent="1" vertex="1">
          <mxGeometry x="1241" y="1120" width="270" height="80" as="geometry" />
        </mxCell>
        <mxCell id="C3T1x8RPN89TvurakHbP-90" value="" style="edgeStyle=orthogonalEdgeStyle;rounded=0;orthogonalLoop=1;jettySize=auto;html=1;" parent="1" source="C3T1x8RPN89TvurakHbP-87" target="C3T1x8RPN89TvurakHbP-89" edge="1">
          <mxGeometry relative="1" as="geometry" />
        </mxCell>
        <mxCell id="C3T1x8RPN89TvurakHbP-87" value="t_dwd_cpcba_sale_orders_detail_1d_ql" style="whiteSpace=wrap;html=1;rounded=0;" parent="1" vertex="1">
          <mxGeometry x="1591" y="1120" width="270" height="80" as="geometry" />
        </mxCell>
        <mxCell id="C3T1x8RPN89TvurakHbP-89" value="PCBA销售订单明细" style="whiteSpace=wrap;html=1;rounded=0;fillColor=#e1d5e7;strokeColor=#9673a6;" parent="1" vertex="1">
          <mxGeometry x="1961" y="1130" width="120" height="60" as="geometry" />
        </mxCell>
        <mxCell id="C3T1x8RPN89TvurakHbP-95" value="" style="edgeStyle=orthogonalEdgeStyle;rounded=0;orthogonalLoop=1;jettySize=auto;html=1;" parent="1" source="C3T1x8RPN89TvurakHbP-91" target="C3T1x8RPN89TvurakHbP-94" edge="1">
          <mxGeometry relative="1" as="geometry" />
        </mxCell>
        <mxCell id="C3T1x8RPN89TvurakHbP-91" value="t_ods_opcba_pcba_as_discount_orders_1d_ql" style="whiteSpace=wrap;html=1;rounded=0;" parent="1" vertex="1">
          <mxGeometry x="1241" y="1240" width="270" height="80" as="geometry" />
        </mxCell>
        <mxCell id="C3T1x8RPN89TvurakHbP-97" value="" style="edgeStyle=orthogonalEdgeStyle;rounded=0;orthogonalLoop=1;jettySize=auto;html=1;" parent="1" source="C3T1x8RPN89TvurakHbP-94" target="C3T1x8RPN89TvurakHbP-96" edge="1">
          <mxGeometry relative="1" as="geometry" />
        </mxCell>
        <mxCell id="C3T1x8RPN89TvurakHbP-94" value="t_dwd_cpcba_as_orders_goods_detail_1d_ql" style="whiteSpace=wrap;html=1;rounded=0;" parent="1" vertex="1">
          <mxGeometry x="1591" y="1240" width="270" height="80" as="geometry" />
        </mxCell>
        <mxCell id="C3T1x8RPN89TvurakHbP-96" value="PCBA销售折让明细（计算整单折扣费）" style="whiteSpace=wrap;html=1;rounded=0;fillColor=#e1d5e7;strokeColor=#9673a6;" parent="1" vertex="1">
          <mxGeometry x="1961" y="1250" width="120" height="60" as="geometry" />
        </mxCell>
        <mxCell id="C3T1x8RPN89TvurakHbP-100" value="" style="edgeStyle=orthogonalEdgeStyle;rounded=0;orthogonalLoop=1;jettySize=auto;html=1;" parent="1" source="C3T1x8RPN89TvurakHbP-98" target="C3T1x8RPN89TvurakHbP-99" edge="1">
          <mxGeometry relative="1" as="geometry" />
        </mxCell>
        <mxCell id="C3T1x8RPN89TvurakHbP-98" value="t_ods_oerp_fms_credit_application_1d_ql" style="whiteSpace=wrap;html=1;rounded=0;" parent="1" vertex="1">
          <mxGeometry x="290" y="1420" width="270" height="80" as="geometry" />
        </mxCell>
        <mxCell id="C3T1x8RPN89TvurakHbP-102" value="" style="edgeStyle=orthogonalEdgeStyle;rounded=0;orthogonalLoop=1;jettySize=auto;html=1;" parent="1" source="C3T1x8RPN89TvurakHbP-99" target="C3T1x8RPN89TvurakHbP-101" edge="1">
          <mxGeometry relative="1" as="geometry" />
        </mxCell>
        <mxCell id="C3T1x8RPN89TvurakHbP-99" value="t_dwd_cfms_credit_application_1d_ql" style="whiteSpace=wrap;html=1;rounded=0;" parent="1" vertex="1">
          <mxGeometry x="640" y="1420" width="270" height="80" as="geometry" />
        </mxCell>
        <mxCell id="C3T1x8RPN89TvurakHbP-101" value="授信申请单" style="whiteSpace=wrap;html=1;rounded=0;fillColor=#fad9d5;strokeColor=#ae4132;" parent="1" vertex="1">
          <mxGeometry x="1010" y="1430" width="120" height="60" as="geometry" />
        </mxCell>
        <mxCell id="C3T1x8RPN89TvurakHbP-105" value="" style="edgeStyle=orthogonalEdgeStyle;rounded=0;orthogonalLoop=1;jettySize=auto;html=1;" parent="1" source="C3T1x8RPN89TvurakHbP-103" target="C3T1x8RPN89TvurakHbP-104" edge="1">
          <mxGeometry relative="1" as="geometry" />
        </mxCell>
        <mxCell id="C3T1x8RPN89TvurakHbP-103" value="t_ods_oerp_sale_orders_amounts_1d_ql" style="whiteSpace=wrap;html=1;rounded=0;" parent="1" vertex="1">
          <mxGeometry x="290" y="1300" width="270" height="80" as="geometry" />
        </mxCell>
        <mxCell id="C3T1x8RPN89TvurakHbP-107" value="" style="edgeStyle=orthogonalEdgeStyle;rounded=0;orthogonalLoop=1;jettySize=auto;html=1;" parent="1" source="C3T1x8RPN89TvurakHbP-104" target="C3T1x8RPN89TvurakHbP-106" edge="1">
          <mxGeometry relative="1" as="geometry" />
        </mxCell>
        <mxCell id="C3T1x8RPN89TvurakHbP-104" value="t_dwd_csale_orders_amounts_1d_ql" style="whiteSpace=wrap;html=1;rounded=0;" parent="1" vertex="1">
          <mxGeometry x="640" y="1300" width="270" height="80" as="geometry" />
        </mxCell>
        <mxCell id="C3T1x8RPN89TvurakHbP-106" value="IC整单附加|折扣费用表" style="whiteSpace=wrap;html=1;rounded=0;fillColor=#dae8fc;strokeColor=#6c8ebf;" parent="1" vertex="1">
          <mxGeometry x="1010" y="1310" width="120" height="60" as="geometry" />
        </mxCell>
        <mxCell id="C3T1x8RPN89TvurakHbP-111" value="" style="edgeStyle=orthogonalEdgeStyle;rounded=0;orthogonalLoop=1;jettySize=auto;html=1;" parent="1" source="C3T1x8RPN89TvurakHbP-108" target="C3T1x8RPN89TvurakHbP-110" edge="1">
          <mxGeometry relative="1" as="geometry" />
        </mxCell>
        <mxCell id="C3T1x8RPN89TvurakHbP-108" value="t_ods_opcba_sale_orders_amounts_1d_ql" style="whiteSpace=wrap;html=1;rounded=0;" parent="1" vertex="1">
          <mxGeometry x="1241" y="1350" width="270" height="80" as="geometry" />
        </mxCell>
        <mxCell id="C3T1x8RPN89TvurakHbP-116" value="" style="edgeStyle=orthogonalEdgeStyle;rounded=0;orthogonalLoop=1;jettySize=auto;html=1;" parent="1" source="C3T1x8RPN89TvurakHbP-109" target="C3T1x8RPN89TvurakHbP-115" edge="1">
          <mxGeometry relative="1" as="geometry" />
        </mxCell>
        <mxCell id="C3T1x8RPN89TvurakHbP-109" value="&lt;div&gt;t_dwd_csale_orders_goods_detail_1d_ql&amp;nbsp; &amp;nbsp;&lt;/div&gt;&lt;div&gt;t_dwd_cpcba_sale_orders_detail_1d_ql&amp;nbsp;&amp;nbsp;&lt;/div&gt;&lt;div&gt;t_dwd_csale_as_orders_goods_detail_1d_ql&amp;nbsp;&amp;nbsp;&lt;/div&gt;&lt;div&gt;&lt;br&gt;&lt;/div&gt;" style="whiteSpace=wrap;html=1;rounded=0;" parent="1" vertex="1">
          <mxGeometry x="290" y="1630" width="270" height="80" as="geometry" />
        </mxCell>
        <mxCell id="C3T1x8RPN89TvurakHbP-113" value="" style="edgeStyle=orthogonalEdgeStyle;rounded=0;orthogonalLoop=1;jettySize=auto;html=1;" parent="1" source="C3T1x8RPN89TvurakHbP-110" target="C3T1x8RPN89TvurakHbP-112" edge="1">
          <mxGeometry relative="1" as="geometry" />
        </mxCell>
        <mxCell id="C3T1x8RPN89TvurakHbP-110" value="t_dwd_cpcba_orders_amounts_1d_ql" style="whiteSpace=wrap;html=1;rounded=0;" parent="1" vertex="1">
          <mxGeometry x="1591" y="1350" width="270" height="80" as="geometry" />
        </mxCell>
        <mxCell id="C3T1x8RPN89TvurakHbP-112" value="PCBA整单附加用表" style="whiteSpace=wrap;html=1;rounded=0;fillColor=#e1d5e7;strokeColor=#9673a6;" parent="1" vertex="1">
          <mxGeometry x="1961" y="1360" width="120" height="60" as="geometry" />
        </mxCell>
        <mxCell id="C3T1x8RPN89TvurakHbP-118" value="" style="edgeStyle=orthogonalEdgeStyle;rounded=0;orthogonalLoop=1;jettySize=auto;html=1;" parent="1" source="C3T1x8RPN89TvurakHbP-115" target="C3T1x8RPN89TvurakHbP-117" edge="1">
          <mxGeometry relative="1" as="geometry" />
        </mxCell>
        <mxCell id="C3T1x8RPN89TvurakHbP-115" value="t_dwd_csale_ic_pcbac_orders_goods_detail_1d_ql" style="whiteSpace=wrap;html=1;rounded=0;" parent="1" vertex="1">
          <mxGeometry x="630" y="1630" width="320" height="80" as="geometry" />
        </mxCell>
        <mxCell id="C3T1x8RPN89TvurakHbP-217" value="" style="edgeStyle=orthogonalEdgeStyle;rounded=0;orthogonalLoop=1;jettySize=auto;html=1;" parent="1" source="C3T1x8RPN89TvurakHbP-117" target="C3T1x8RPN89TvurakHbP-216" edge="1">
          <mxGeometry relative="1" as="geometry" />
        </mxCell>
        <mxCell id="C3T1x8RPN89TvurakHbP-117" value="IC-PCBA销售售后明细整合表" style="whiteSpace=wrap;html=1;rounded=0;fillColor=#f8cecc;strokeColor=#b85450;" parent="1" vertex="1">
          <mxGeometry x="1010" y="1640" width="120" height="60" as="geometry" />
        </mxCell>
        <mxCell id="C3T1x8RPN89TvurakHbP-122" value="" style="edgeStyle=orthogonalEdgeStyle;rounded=0;orthogonalLoop=1;jettySize=auto;html=1;" parent="1" source="C3T1x8RPN89TvurakHbP-120" target="C3T1x8RPN89TvurakHbP-121" edge="1">
          <mxGeometry relative="1" as="geometry" />
        </mxCell>
        <mxCell id="C3T1x8RPN89TvurakHbP-120" value="&lt;div&gt;t_ods_oerp_wms_sendout_1d_ql&lt;/div&gt;&lt;div&gt;t_ods_oerp_wms_sendout_detail_1d_ql&lt;/div&gt;&lt;div&gt;t_ods_oerp_wms_barcode_1d_ql&lt;/div&gt;&lt;div&gt;t_ods_oerp_wms_presendout_detail_1d_ql&lt;/div&gt;" style="whiteSpace=wrap;html=1;rounded=0;" parent="1" vertex="1">
          <mxGeometry x="290" y="1760" width="270" height="80" as="geometry" />
        </mxCell>
        <mxCell id="C3T1x8RPN89TvurakHbP-124" value="" style="edgeStyle=orthogonalEdgeStyle;rounded=0;orthogonalLoop=1;jettySize=auto;html=1;" parent="1" source="C3T1x8RPN89TvurakHbP-121" target="C3T1x8RPN89TvurakHbP-123" edge="1">
          <mxGeometry relative="1" as="geometry" />
        </mxCell>
        <mxCell id="C3T1x8RPN89TvurakHbP-121" value="t_dwd_cwms_ic_pcba_sendout_detail_1d_ql" style="whiteSpace=wrap;html=1;rounded=0;" parent="1" vertex="1">
          <mxGeometry x="640" y="1760" width="270" height="80" as="geometry" />
        </mxCell>
        <mxCell id="C3T1x8RPN89TvurakHbP-220" value="" style="edgeStyle=orthogonalEdgeStyle;rounded=0;orthogonalLoop=1;jettySize=auto;html=1;" parent="1" source="C3T1x8RPN89TvurakHbP-123" target="C3T1x8RPN89TvurakHbP-219" edge="1">
          <mxGeometry relative="1" as="geometry" />
        </mxCell>
        <mxCell id="C3T1x8RPN89TvurakHbP-123" value="IC-PCBA物流发货明细整合表" style="whiteSpace=wrap;html=1;rounded=0;fillColor=#f8cecc;strokeColor=#b85450;" parent="1" vertex="1">
          <mxGeometry x="1010" y="1770" width="120" height="60" as="geometry" />
        </mxCell>
        <mxCell id="C3T1x8RPN89TvurakHbP-128" value="" style="edgeStyle=orthogonalEdgeStyle;rounded=0;orthogonalLoop=1;jettySize=auto;html=1;" parent="1" source="C3T1x8RPN89TvurakHbP-126" target="C3T1x8RPN89TvurakHbP-127" edge="1">
          <mxGeometry relative="1" as="geometry" />
        </mxCell>
        <mxCell id="C3T1x8RPN89TvurakHbP-126" value="&lt;div&gt;t_dwd_csale_orders_amounts_1d_ql&amp;nbsp;&lt;/div&gt;&lt;div&gt;t_dwd_cpcba_as_orders_goods_detail_1d_ql&lt;/div&gt;&lt;div&gt;t_dwd_cpcba_orders_amounts_1d_ql&amp;nbsp;&lt;/div&gt;" style="whiteSpace=wrap;html=1;rounded=0;" parent="1" vertex="1">
          <mxGeometry x="290" y="1870" width="270" height="80" as="geometry" />
        </mxCell>
        <mxCell id="C3T1x8RPN89TvurakHbP-130" value="" style="edgeStyle=orthogonalEdgeStyle;rounded=0;orthogonalLoop=1;jettySize=auto;html=1;" parent="1" source="C3T1x8RPN89TvurakHbP-127" target="C3T1x8RPN89TvurakHbP-129" edge="1">
          <mxGeometry relative="1" as="geometry" />
        </mxCell>
        <mxCell id="C3T1x8RPN89TvurakHbP-127" value="t_dwd_csale_ic_pcba_orders_amounts_1d_ql" style="whiteSpace=wrap;html=1;rounded=0;" parent="1" vertex="1">
          <mxGeometry x="640" y="1870" width="270" height="80" as="geometry" />
        </mxCell>
        <mxCell id="C3T1x8RPN89TvurakHbP-222" value="" style="edgeStyle=orthogonalEdgeStyle;rounded=0;orthogonalLoop=1;jettySize=auto;html=1;" parent="1" source="C3T1x8RPN89TvurakHbP-129" target="C3T1x8RPN89TvurakHbP-221" edge="1">
          <mxGeometry relative="1" as="geometry" />
        </mxCell>
        <mxCell id="C3T1x8RPN89TvurakHbP-129" value="IC-PCBA整单附加折扣费整合表" style="whiteSpace=wrap;html=1;rounded=0;fillColor=#f8cecc;strokeColor=#b85450;" parent="1" vertex="1">
          <mxGeometry x="1010" y="1880" width="120" height="60" as="geometry" />
        </mxCell>
        <mxCell id="C3T1x8RPN89TvurakHbP-132" value="DWS层数据" style="rounded=0;whiteSpace=wrap;html=1;" parent="1" vertex="1">
          <mxGeometry x="40" y="2350" width="190" height="80" as="geometry" />
        </mxCell>
        <mxCell id="C3T1x8RPN89TvurakHbP-134" value="DIM维表数据" style="rounded=0;whiteSpace=wrap;html=1;" parent="1" vertex="1">
          <mxGeometry x="30" y="660" width="170" height="60" as="geometry" />
        </mxCell>
        <mxCell id="C3T1x8RPN89TvurakHbP-135" style="edgeStyle=orthogonalEdgeStyle;rounded=0;orthogonalLoop=1;jettySize=auto;html=1;exitX=1;exitY=0.5;exitDx=0;exitDy=0;fillColor=#ffe6cc;strokeColor=#d79b00;" parent="1" source="C3T1x8RPN89TvurakHbP-136" target="C3T1x8RPN89TvurakHbP-138" edge="1">
          <mxGeometry relative="1" as="geometry" />
        </mxCell>
        <mxCell id="C3T1x8RPN89TvurakHbP-136" value="t_ods_oerp_fms_exchangerate_1d_ql" style="whiteSpace=wrap;html=1;rounded=0;fillColor=#ffe6cc;strokeColor=#d79b00;" parent="1" vertex="1">
          <mxGeometry x="490" y="660" width="270" height="60" as="geometry" />
        </mxCell>
        <mxCell id="C3T1x8RPN89TvurakHbP-137" value="" style="edgeStyle=orthogonalEdgeStyle;rounded=0;orthogonalLoop=1;jettySize=auto;html=1;fillColor=#ffe6cc;strokeColor=#d79b00;" parent="1" source="C3T1x8RPN89TvurakHbP-138" target="C3T1x8RPN89TvurakHbP-139" edge="1">
          <mxGeometry relative="1" as="geometry" />
        </mxCell>
        <mxCell id="C3T1x8RPN89TvurakHbP-138" value="t_dim_cfms_exchangerate_1d_ql" style="whiteSpace=wrap;html=1;rounded=0;fillColor=#ffe6cc;strokeColor=#d79b00;" parent="1" vertex="1">
          <mxGeometry x="830" y="660" width="290" height="60" as="geometry" />
        </mxCell>
        <mxCell id="C3T1x8RPN89TvurakHbP-139" value="财务汇率维表" style="whiteSpace=wrap;html=1;rounded=0;fillColor=#ffe6cc;strokeColor=#d79b00;" parent="1" vertex="1">
          <mxGeometry x="1210" y="660" width="120" height="60" as="geometry" />
        </mxCell>
        <mxCell id="C3T1x8RPN89TvurakHbP-141" style="edgeStyle=orthogonalEdgeStyle;rounded=0;orthogonalLoop=1;jettySize=auto;html=1;exitX=1;exitY=0.5;exitDx=0;exitDy=0;fillColor=#ffe6cc;strokeColor=#d79b00;" parent="1" source="C3T1x8RPN89TvurakHbP-142" target="C3T1x8RPN89TvurakHbP-144" edge="1">
          <mxGeometry relative="1" as="geometry" />
        </mxCell>
        <mxCell id="C3T1x8RPN89TvurakHbP-142" value="&lt;div&gt;t_ods_oerp_staff_1d_ql&lt;/div&gt;&lt;div&gt;t_ods_oerp_access_group_1d_ql&lt;/div&gt;&lt;div&gt;t_ods_oerp_access_department_1d_ql&lt;/div&gt;&lt;div&gt;t_ods_oerp_user_staff_link_1d_ql&lt;/div&gt;" style="whiteSpace=wrap;html=1;rounded=0;fillColor=#ffe6cc;strokeColor=#d79b00;" parent="1" vertex="1">
          <mxGeometry x="490" y="760" width="270" height="60" as="geometry" />
        </mxCell>
        <mxCell id="C3T1x8RPN89TvurakHbP-143" value="" style="edgeStyle=orthogonalEdgeStyle;rounded=0;orthogonalLoop=1;jettySize=auto;html=1;fillColor=#ffe6cc;strokeColor=#d79b00;" parent="1" source="C3T1x8RPN89TvurakHbP-144" target="C3T1x8RPN89TvurakHbP-145" edge="1">
          <mxGeometry relative="1" as="geometry" />
        </mxCell>
        <mxCell id="C3T1x8RPN89TvurakHbP-144" value="t_dim_cuser_staff_info_1d_ql" style="whiteSpace=wrap;html=1;rounded=0;fillColor=#ffe6cc;strokeColor=#d79b00;" parent="1" vertex="1">
          <mxGeometry x="830" y="760" width="290" height="60" as="geometry" />
        </mxCell>
        <mxCell id="C3T1x8RPN89TvurakHbP-145" value="会员与销售代表维表" style="whiteSpace=wrap;html=1;rounded=0;fillColor=#ffe6cc;strokeColor=#d79b00;" parent="1" vertex="1">
          <mxGeometry x="1210" y="760" width="120" height="60" as="geometry" />
        </mxCell>
        <mxCell id="C3T1x8RPN89TvurakHbP-146" value="" style="edgeStyle=orthogonalEdgeStyle;rounded=0;orthogonalLoop=1;jettySize=auto;html=1;" parent="1" source="C3T1x8RPN89TvurakHbP-147" target="C3T1x8RPN89TvurakHbP-149" edge="1">
          <mxGeometry relative="1" as="geometry" />
        </mxCell>
        <mxCell id="C3T1x8RPN89TvurakHbP-147" value="&lt;div&gt;t_dwd_csale_ic_pcbac_orders_goods_detail_1d_ql&lt;/div&gt;&lt;div&gt;t_dwd_cwms_ic_pcba_sendout_detail_1d_ql&lt;/div&gt;&lt;div&gt;t_dwd_csale_ic_pcba_orders_amounts_1d_ql&lt;/div&gt;" style="whiteSpace=wrap;html=1;rounded=0;" parent="1" vertex="1">
          <mxGeometry x="330" y="2350" width="270" height="80" as="geometry" />
        </mxCell>
        <mxCell id="C3T1x8RPN89TvurakHbP-148" value="" style="edgeStyle=orthogonalEdgeStyle;rounded=0;orthogonalLoop=1;jettySize=auto;html=1;" parent="1" source="C3T1x8RPN89TvurakHbP-149" target="C3T1x8RPN89TvurakHbP-150" edge="1">
          <mxGeometry relative="1" as="geometry" />
        </mxCell>
        <mxCell id="C3T1x8RPN89TvurakHbP-149" value="t_dws_csale_orders_goods_detail_1d_ql" style="whiteSpace=wrap;html=1;rounded=0;" parent="1" vertex="1">
          <mxGeometry x="680" y="2350" width="270" height="80" as="geometry" />
        </mxCell>
        <mxCell id="C3T1x8RPN89TvurakHbP-150" value="DWS--IC-PCBA销售明细发货明细整合表" style="whiteSpace=wrap;html=1;rounded=0;fillColor=#fff2cc;strokeColor=#d6b656;" parent="1" vertex="1">
          <mxGeometry x="1050" y="2360" width="300" height="60" as="geometry" />
        </mxCell>
        <mxCell id="C3T1x8RPN89TvurakHbP-151" value="" style="edgeStyle=orthogonalEdgeStyle;rounded=0;orthogonalLoop=1;jettySize=auto;html=1;" parent="1" source="C3T1x8RPN89TvurakHbP-152" target="C3T1x8RPN89TvurakHbP-154" edge="1">
          <mxGeometry relative="1" as="geometry" />
        </mxCell>
        <mxCell id="C3T1x8RPN89TvurakHbP-152" value="&lt;div&gt;t_dwd_csale_ic_pcbac_orders_goods_detail_1d_ql&lt;/div&gt;&lt;div&gt;t_dwd_cwms_ic_pcba_sendout_detail_1d_ql&lt;/div&gt;&lt;div&gt;t_dwd_csale_ic_pcba_orders_amounts_1d_ql&lt;/div&gt;" style="whiteSpace=wrap;html=1;rounded=0;" parent="1" vertex="1">
          <mxGeometry x="330" y="2470" width="270" height="80" as="geometry" />
        </mxCell>
        <mxCell id="C3T1x8RPN89TvurakHbP-153" value="" style="edgeStyle=orthogonalEdgeStyle;rounded=0;orthogonalLoop=1;jettySize=auto;html=1;" parent="1" source="C3T1x8RPN89TvurakHbP-154" target="C3T1x8RPN89TvurakHbP-155" edge="1">
          <mxGeometry relative="1" as="geometry" />
        </mxCell>
        <mxCell id="C3T1x8RPN89TvurakHbP-154" value="t_dws_csale_orders_amounts_detail_1d_ql" style="whiteSpace=wrap;html=1;rounded=0;" parent="1" vertex="1">
          <mxGeometry x="680" y="2470" width="270" height="80" as="geometry" />
        </mxCell>
        <mxCell id="C3T1x8RPN89TvurakHbP-155" value="DWS--IC-PCBA折扣费发货明细整合表（整单折扣费、附加费需要单独生成一条或多条记录）" style="whiteSpace=wrap;html=1;rounded=0;fillColor=#fff2cc;strokeColor=#d6b656;" parent="1" vertex="1">
          <mxGeometry x="1050" y="2480" width="300" height="60" as="geometry" />
        </mxCell>
        <mxCell id="C3T1x8RPN89TvurakHbP-156" value="TDM层数据" style="rounded=0;whiteSpace=wrap;html=1;" parent="1" vertex="1">
          <mxGeometry x="50" y="3200" width="190" height="80" as="geometry" />
        </mxCell>
        <mxCell id="C3T1x8RPN89TvurakHbP-158" value="" style="edgeStyle=orthogonalEdgeStyle;rounded=0;orthogonalLoop=1;jettySize=auto;html=1;" parent="1" source="C3T1x8RPN89TvurakHbP-159" target="C3T1x8RPN89TvurakHbP-161" edge="1">
          <mxGeometry relative="1" as="geometry" />
        </mxCell>
        <mxCell id="C3T1x8RPN89TvurakHbP-159" value="&lt;span style=&quot;text-align: left&quot;&gt;t_dws_csale_orders_goods_detail_1d_ql&lt;/span&gt;&lt;br style=&quot;text-align: left&quot;&gt;&lt;span style=&quot;text-align: left&quot;&gt;t_dws_csale_orders_amounts_detail_1d_ql&lt;/span&gt;" style="whiteSpace=wrap;html=1;rounded=0;" parent="1" vertex="1">
          <mxGeometry x="340" y="3200" width="270" height="80" as="geometry" />
        </mxCell>
        <mxCell id="C3T1x8RPN89TvurakHbP-160" value="" style="edgeStyle=orthogonalEdgeStyle;rounded=0;orthogonalLoop=1;jettySize=auto;html=1;fillColor=#ffe6cc;strokeColor=#d79b00;" parent="1" source="C3T1x8RPN89TvurakHbP-161" target="C3T1x8RPN89TvurakHbP-162" edge="1">
          <mxGeometry relative="1" as="geometry" />
        </mxCell>
        <mxCell id="C3T1x8RPN89TvurakHbP-161" value="t_tdm_tsale_orders_goods_detail_1d_ql" style="whiteSpace=wrap;html=1;rounded=0;" parent="1" vertex="1">
          <mxGeometry x="690" y="3200" width="270" height="80" as="geometry" />
        </mxCell>
        <mxCell id="C3T1x8RPN89TvurakHbP-162" value="TDM--IC-PCBA应收账款整合表(用于报表明细展示)" style="whiteSpace=wrap;html=1;rounded=0;fillColor=#ffe6cc;strokeColor=#d79b00;" parent="1" vertex="1">
          <mxGeometry x="1060" y="3202.5" width="410" height="75" as="geometry" />
        </mxCell>
        <mxCell id="C3T1x8RPN89TvurakHbP-166" value="" style="edgeStyle=orthogonalEdgeStyle;rounded=0;orthogonalLoop=1;jettySize=auto;html=1;" parent="1" source="C3T1x8RPN89TvurakHbP-167" target="C3T1x8RPN89TvurakHbP-169" edge="1">
          <mxGeometry relative="1" as="geometry" />
        </mxCell>
        <mxCell id="C3T1x8RPN89TvurakHbP-167" value="t_tdm_tsale_orders_goods_detail_1d_ql" style="whiteSpace=wrap;html=1;rounded=0;" parent="1" vertex="1">
          <mxGeometry x="340" y="3360" width="270" height="80" as="geometry" />
        </mxCell>
        <mxCell id="C3T1x8RPN89TvurakHbP-168" value="" style="edgeStyle=orthogonalEdgeStyle;rounded=0;orthogonalLoop=1;jettySize=auto;html=1;fillColor=#ffe6cc;strokeColor=#d79b00;" parent="1" source="C3T1x8RPN89TvurakHbP-169" target="C3T1x8RPN89TvurakHbP-170" edge="1">
          <mxGeometry relative="1" as="geometry" />
        </mxCell>
        <mxCell id="C3T1x8RPN89TvurakHbP-169" value="t_tdm_tfms_overdu_amounts_user_lists_1d_ql" style="whiteSpace=wrap;html=1;rounded=0;" parent="1" vertex="1">
          <mxGeometry x="690" y="3360" width="270" height="80" as="geometry" />
        </mxCell>
        <mxCell id="C3T1x8RPN89TvurakHbP-170" value="TDM--IC-PCBA-逾期用户财务催款函聚合表(API接口直接调用发送邮件)" style="whiteSpace=wrap;html=1;rounded=0;fillColor=#ffe6cc;strokeColor=#d79b00;" parent="1" vertex="1">
          <mxGeometry x="1060" y="3370" width="410" height="60" as="geometry" />
        </mxCell>
        <mxCell id="C3T1x8RPN89TvurakHbP-174" value="" style="edgeStyle=orthogonalEdgeStyle;rounded=0;orthogonalLoop=1;jettySize=auto;html=1;" parent="1" source="C3T1x8RPN89TvurakHbP-175" target="C3T1x8RPN89TvurakHbP-177" edge="1">
          <mxGeometry relative="1" as="geometry" />
        </mxCell>
        <mxCell id="C3T1x8RPN89TvurakHbP-175" value="t_tdm_tsale_orders_goods_detail_1d_ql" style="whiteSpace=wrap;html=1;rounded=0;" parent="1" vertex="1">
          <mxGeometry x="340" y="3040" width="270" height="80" as="geometry" />
        </mxCell>
        <mxCell id="C3T1x8RPN89TvurakHbP-176" value="" style="edgeStyle=orthogonalEdgeStyle;rounded=0;orthogonalLoop=1;jettySize=auto;html=1;fillColor=#e51400;strokeColor=#B20000;" parent="1" source="C3T1x8RPN89TvurakHbP-177" target="C3T1x8RPN89TvurakHbP-178" edge="1">
          <mxGeometry relative="1" as="geometry" />
        </mxCell>
        <mxCell id="C3T1x8RPN89TvurakHbP-177" value="t_tdm_tlaw_overdu_amounts_lists_1d_ql" style="whiteSpace=wrap;html=1;rounded=0;" parent="1" vertex="1">
          <mxGeometry x="690" y="3040" width="270" height="80" as="geometry" />
        </mxCell>
        <mxCell id="C3T1x8RPN89TvurakHbP-178" value="DWS--IC-PCBA-逾期用户法务催款函聚合表(具体功能待沟通)" style="whiteSpace=wrap;html=1;rounded=0;fillColor=#e51400;strokeColor=#B20000;fontColor=#ffffff;" parent="1" vertex="1">
          <mxGeometry x="1060" y="3050" width="410" height="60" as="geometry" />
        </mxCell>
        <mxCell id="C3T1x8RPN89TvurakHbP-216" value="来源IC、PCBA" style="whiteSpace=wrap;html=1;rounded=0;strokeColor=#b85450;fillColor=#f8cecc;" parent="1" vertex="1">
          <mxGeometry x="1210" y="1640" width="120" height="60" as="geometry" />
        </mxCell>
        <mxCell id="C3T1x8RPN89TvurakHbP-219" value="&lt;span&gt;来源IC、PCBA&lt;/span&gt;" style="whiteSpace=wrap;html=1;rounded=0;strokeColor=#b85450;fillColor=#f8cecc;" parent="1" vertex="1">
          <mxGeometry x="1210" y="1770" width="120" height="60" as="geometry" />
        </mxCell>
        <mxCell id="C3T1x8RPN89TvurakHbP-221" value="&lt;span&gt;来源IC、PCBA&lt;/span&gt;" style="whiteSpace=wrap;html=1;rounded=0;strokeColor=#b85450;fillColor=#f8cecc;" parent="1" vertex="1">
          <mxGeometry x="1210" y="1880" width="120" height="60" as="geometry" />
        </mxCell>
        <mxCell id="C3T1x8RPN89TvurakHbP-231" value="" style="edgeStyle=orthogonalEdgeStyle;rounded=0;orthogonalLoop=1;jettySize=auto;html=1;" parent="1" source="C3T1x8RPN89TvurakHbP-232" target="C3T1x8RPN89TvurakHbP-234" edge="1">
          <mxGeometry relative="1" as="geometry" />
        </mxCell>
        <mxCell id="C3T1x8RPN89TvurakHbP-232" value="t_tdm_tsale_orders_goods_detail_1d_ql" style="whiteSpace=wrap;html=1;rounded=0;" parent="1" vertex="1">
          <mxGeometry x="340" y="3500" width="270" height="80" as="geometry" />
        </mxCell>
        <mxCell id="C3T1x8RPN89TvurakHbP-233" value="" style="edgeStyle=orthogonalEdgeStyle;rounded=0;orthogonalLoop=1;jettySize=auto;html=1;fillColor=#ffe6cc;strokeColor=#d79b00;" parent="1" source="C3T1x8RPN89TvurakHbP-234" target="C3T1x8RPN89TvurakHbP-235" edge="1">
          <mxGeometry relative="1" as="geometry" />
        </mxCell>
        <mxCell id="C3T1x8RPN89TvurakHbP-234" value="t_tdm_tfms_overdu_user_empty_email_lists_1d_ql" style="whiteSpace=wrap;html=1;rounded=0;" parent="1" vertex="1">
          <mxGeometry x="690" y="3500" width="270" height="80" as="geometry" />
        </mxCell>
        <mxCell id="C3T1x8RPN89TvurakHbP-235" value="TDM-逾期用户缺失邮箱汇总" style="whiteSpace=wrap;html=1;rounded=0;fillColor=#ffe6cc;strokeColor=#d79b00;" parent="1" vertex="1">
          <mxGeometry x="1060" y="3510" width="410" height="60" as="geometry" />
        </mxCell>
        <mxCell id="OfMZS_a9DjnzfnFLmxk9-9" value="" style="edgeStyle=orthogonalEdgeStyle;rounded=0;orthogonalLoop=1;jettySize=auto;html=1;" edge="1" parent="1" source="OfMZS_a9DjnzfnFLmxk9-2" target="OfMZS_a9DjnzfnFLmxk9-8">
          <mxGeometry relative="1" as="geometry" />
        </mxCell>
        <mxCell id="OfMZS_a9DjnzfnFLmxk9-19" value="每天凌晨4点半同步完成" style="edgeLabel;html=1;align=center;verticalAlign=middle;resizable=0;points=[];" vertex="1" connectable="0" parent="OfMZS_a9DjnzfnFLmxk9-9">
          <mxGeometry x="-0.2008" relative="1" as="geometry">
            <mxPoint as="offset" />
          </mxGeometry>
        </mxCell>
        <mxCell id="OfMZS_a9DjnzfnFLmxk9-2" value="数据中台聚合数据&lt;br&gt;15W-20W" style="ellipse;shape=cloud;whiteSpace=wrap;html=1;fillColor=#dae8fc;strokeColor=#6c8ebf;" vertex="1" parent="1">
          <mxGeometry x="70" y="3700" width="190" height="140" as="geometry" />
        </mxCell>
        <mxCell id="OfMZS_a9DjnzfnFLmxk9-8" value="t_tdm_cfms_orders_receivable_1d_ql" style="whiteSpace=wrap;html=1;" vertex="1" parent="1">
          <mxGeometry x="28.75" y="3940" width="272.5" height="60" as="geometry" />
        </mxCell>
        <mxCell id="OfMZS_a9DjnzfnFLmxk9-14" value="运维同步ERP" style="shape=singleArrow;whiteSpace=wrap;html=1;fillColor=#d5e8d4;strokeColor=#82b366;" vertex="1" parent="1">
          <mxGeometry x="340" y="3940" width="120" height="60" as="geometry" />
        </mxCell>
        <mxCell id="OfMZS_a9DjnzfnFLmxk9-24" style="edgeStyle=orthogonalEdgeStyle;rounded=0;orthogonalLoop=1;jettySize=auto;html=1;" edge="1" parent="1" source="OfMZS_a9DjnzfnFLmxk9-17" target="OfMZS_a9DjnzfnFLmxk9-22">
          <mxGeometry relative="1" as="geometry" />
        </mxCell>
        <mxCell id="OfMZS_a9DjnzfnFLmxk9-25" style="edgeStyle=orthogonalEdgeStyle;rounded=0;orthogonalLoop=1;jettySize=auto;html=1;exitX=1;exitY=0.5;exitDx=0;exitDy=0;entryX=0;entryY=0.5;entryDx=0;entryDy=0;" edge="1" parent="1" source="OfMZS_a9DjnzfnFLmxk9-17" target="OfMZS_a9DjnzfnFLmxk9-21">
          <mxGeometry relative="1" as="geometry" />
        </mxCell>
        <mxCell id="OfMZS_a9DjnzfnFLmxk9-26" style="edgeStyle=orthogonalEdgeStyle;rounded=0;orthogonalLoop=1;jettySize=auto;html=1;exitX=1;exitY=0.5;exitDx=0;exitDy=0;entryX=0;entryY=0.5;entryDx=0;entryDy=0;" edge="1" parent="1" source="OfMZS_a9DjnzfnFLmxk9-17" target="OfMZS_a9DjnzfnFLmxk9-23">
          <mxGeometry relative="1" as="geometry" />
        </mxCell>
        <mxCell id="OfMZS_a9DjnzfnFLmxk9-17" value="ERP&lt;br&gt;db_erp.t_tdm_cfms_orders_receivable_1d_ql" style="whiteSpace=wrap;html=1;" vertex="1" parent="1">
          <mxGeometry x="500" y="3940" width="270" height="60" as="geometry" />
        </mxCell>
        <mxCell id="OfMZS_a9DjnzfnFLmxk9-50" value="" style="edgeStyle=orthogonalEdgeStyle;rounded=0;orthogonalLoop=1;jettySize=auto;html=1;" edge="1" parent="1" source="OfMZS_a9DjnzfnFLmxk9-21" target="OfMZS_a9DjnzfnFLmxk9-49">
          <mxGeometry relative="1" as="geometry" />
        </mxCell>
        <mxCell id="OfMZS_a9DjnzfnFLmxk9-21" value="1、聚合公司抬头，确定发函的范围" style="rounded=0;whiteSpace=wrap;html=1;fillColor=#d5e8d4;strokeColor=#82b366;" vertex="1" parent="1">
          <mxGeometry x="880" y="3780" width="330" height="70" as="geometry" />
        </mxCell>
        <mxCell id="OfMZS_a9DjnzfnFLmxk9-38" value="" style="edgeStyle=orthogonalEdgeStyle;rounded=0;orthogonalLoop=1;jettySize=auto;html=1;" edge="1" parent="1" source="OfMZS_a9DjnzfnFLmxk9-22" target="OfMZS_a9DjnzfnFLmxk9-37">
          <mxGeometry relative="1" as="geometry" />
        </mxCell>
        <mxCell id="OfMZS_a9DjnzfnFLmxk9-22" value="2、生成财务催款函主表数据&lt;br&gt;t_fms_reminder" style="rounded=0;whiteSpace=wrap;html=1;fillColor=#dae8fc;strokeColor=#6c8ebf;" vertex="1" parent="1">
          <mxGeometry x="880" y="3935" width="330" height="70" as="geometry" />
        </mxCell>
        <mxCell id="OfMZS_a9DjnzfnFLmxk9-23" value="4、生成财务催款函明细数据（详情页&amp;amp;核对基础数据）&lt;br&gt;t_fms_reminder_goods" style="rounded=0;whiteSpace=wrap;html=1;fillColor=#e1d5e7;strokeColor=#9673a6;" vertex="1" parent="1">
          <mxGeometry x="880" y="4080" width="330" height="70" as="geometry" />
        </mxCell>
        <mxCell id="OfMZS_a9DjnzfnFLmxk9-37" value="3、生成财务催款函明细数据（发邮件&amp;amp;PDF存档）&lt;br&gt;t_fms_reminder_detail" style="rounded=0;whiteSpace=wrap;html=1;fillColor=#dae8fc;strokeColor=#6c8ebf;" vertex="1" parent="1">
          <mxGeometry x="1290" y="3935" width="330" height="70" as="geometry" />
        </mxCell>
        <mxCell id="OfMZS_a9DjnzfnFLmxk9-41" value="单抬头涉及明细数据量问题&lt;br&gt;杭州迅得电子有限公司&lt;span&gt;	&lt;/span&gt;3129" style="rounded=0;whiteSpace=wrap;html=1;fillColor=#ffe6cc;strokeColor=#d79b00;" vertex="1" parent="1">
          <mxGeometry x="1700" y="3920" width="330" height="70" as="geometry" />
        </mxCell>
        <mxCell id="OfMZS_a9DjnzfnFLmxk9-49" value="15&amp;lt;= 逾期天数 &amp;lt; 45" style="whiteSpace=wrap;html=1;rounded=0;" vertex="1" parent="1">
          <mxGeometry x="1290" y="3785" width="120" height="60" as="geometry" />
        </mxCell>
      </root>
    </mxGraphModel>
  </diagram>
</mxfile>
